<?xml version="1.0" encoding="UTF-8"?>
<svg xmlns="http://www.w3.org/2000/svg" xmlns:xlink="http://www.w3.org/1999/xlink" version="1.1" viewBox="0 0 1920 1080">
  <!-- Generator: Adobe Illustrator 30.2.1, SVG Export Plug-In . SVG Version: 2.1.1 Build 1)  -->
  <g id="Layer_1" display="none">
    <g id="hI9vQ8.tif">
      <image id="Layer_0" width="1452" height="908" transform="translate(399.3152 173) scale(.7576)" xlink:href="Hero-1.png"/>
    </g>
  </g>
  <g id="Layer_2">
    <g>
      <g>
        <path d="M959.3273,347.9136s-140.9738-174.8617-351.0789-117.93v42.021l-33.8879,11.2451v23.9983l-36.599,10.8441v29.8214h-31.1769l-58.2872,386.3224s2.711,25.7548,33.8879,16.2662c31.1769-9.4886,361.9231-77.2645,409.3661-36.599,47.4431,40.6655,81.331,46.0876,132.8407,1.3555s401.233,24.5312,431.0544,37.3427c29.8214,12.8115,9.4886-94.2744,9.4886-94.2744l-48.7986-313.1244-28.4659-2.711-9.4886-24.3993-28.4659-16.2662-4.0666-17.6217-29.8214-18.9772-4.0666-37.9545s-253.4817-36.599-352.4344,120.641Z" fill="none" stroke="#5a3e2b" stroke-miterlimit="10" stroke-width="5"/>
        <path d="M960,698.9925s281.2748-112.5079,475.1137,0l-47.4431-356.501-9.4886-24.3993-28.4659-16.2662,31.1769,334.8127s-218.2483-79.9755-420.8931,62.3538Z" fill="none" stroke="#5a3e2b" stroke-miterlimit="10" stroke-width="5"/>
        <path d="M960,709.911s-158.1678-115.6428-476.858-21.5149l54.6194-340.4824v-29.8214l36.599-10.8441-33.397,323.3265s282.7185-63.2002,419.0365,79.3364Z" fill="none" stroke="#5a3e2b" stroke-miterlimit="10" stroke-width="5"/>
        <path d="M960,698.9925s129.5946-149.099,385.0846-108.7584l-33.323-362.9615s-271.5864-34.275-352.4344,120.641l.6727,351.0789Z" fill="none" stroke="#5a3e2b" stroke-miterlimit="10" stroke-width="5"/>
        <path d="M960,698.9925s-142.0316-143.7202-385.4194-111.4478l33.6678-315.5401v-42.021s247.7052-46.3988,351.0789,117.93l.6727,351.0789Z" fill="none" stroke="#5a3e2b" stroke-miterlimit="10" stroke-width="5"/>
      </g>
      <text transform="translate(672.1796 352.0065)" fill="#5a3e2b" font-family="Noteworthy-Bold, Noteworthy" font-size="72" font-weight="700"><tspan x="0" y="0">Pick a </tspan></text>
      <text transform="translate(1049.3609 352.0065)" fill="#5a3e2b" font-family="Noteworthy-Bold, Noteworthy" font-size="72" font-weight="700"><tspan x="0" y="0">Hobby</tspan></text>
    </g>
  </g>
</svg>